<svg id="voters" enable-background="new 0 0 300 300" height="512" viewBox="0 0 300 300" width="512" xmlns="http://www.w3.org/2000/svg" xmlns:xlink="http://www.w3.org/1999/xlink"><linearGradient id="SVGID_1_" gradientUnits="userSpaceOnUse" x1="47.753" x2="246.476" y1="238.353" y2="39.63"><stop offset="0" stop-color="#107eff"/><stop offset="1" stop-color="#8f16ff"/></linearGradient><g><path d="m267.37 108.138c-.453-.959-1.27-1.699-2.266-2.056l-75.309-26.994c-2.09-.748-4.371.336-5.117 2.416l-16.199 45.186c-.359.998-.305 2.098.148 3.059.453.959 1.27 1.699 2.266 2.056l31.834 11.411-5.362 13.244c-2.007-7.75-8.997-13.516-17.366-13.516-9.926 0-18 8.074-18 18 0 5.181 2.231 9.821 5.745 13.108-1.366.732-2.671 1.575-3.894 2.546-3.021-5.711-8.954-9.654-15.852-9.654s-12.83 3.943-15.851 9.653c-1.223-.971-2.528-1.813-3.894-2.545 3.514-3.287 5.745-7.928 5.745-13.108 0-9.926-8.074-18-18-18-8.369 0-15.36 5.766-17.366 13.516l-4.856-11.993 35.324-12.662c.998-.357 1.814-1.098 2.268-2.056.453-.961.506-2.061.148-3.059l-16.197-45.186c-.744-2.08-3.039-3.166-5.115-2.416l-75.307 26.994c-.998.357-1.814 1.098-2.268 2.056-.453.961-.506 2.061-.148 3.059l16.197 45.186c.586 1.635 2.125 2.652 3.766 2.652.447 0 .904-.076 1.35-.236l32.447-11.631 8.555 21.128c-2.1-.86-4.39-1.353-6.796-1.353-9.926 0-18 8.074-18 18 0 5.171 2.222 9.805 5.725 13.091-8.162 4.391-13.725 13.01-13.725 22.909v30c0 2.209 1.791 4 4 4h164c2.211 0 4-1.791 4-4v-30c0-9.898-5.563-18.518-13.725-22.909 3.503-3.286 5.725-7.92 5.725-13.091 0-9.926-8.074-18-18-18-2.407 0-4.697.493-6.797 1.354l9.062-22.38 35.938 12.882c.449.16.902.236 1.352.236 1.64 0 3.18-1.019 3.766-2.652l16.199-45.186c.357-.998.303-2.098-.15-3.059zm-226.008 4.125 67.776-24.295 13.498 37.654-67.776 24.295zm128.637 48.68c0-5.514 4.484-10 10-10s10 4.486 10 10-4.484 10-10 10-10-4.487-10-10zm-22 14c5.516 0 10 4.486 10 10s-4.484 10-10 10-10-4.486-10-10 4.484-10 10-10zm18 72h-36v-26c0-9.926 8.074-18 18-18s18 8.074 18 18zm-50-96c5.514 0 10 4.486 10 10s-4.486 10-10 10-10-4.486-10-10 4.486-10 10-10zm-38 34c0-5.514 4.486-10 10-10s10 4.486 10 10-4.486 10-10 10-10-4.487-10-10zm28 62h-36v-26c0-9.926 8.074-18 18-18s18 8.074 18 18zm120-26v26h-36v-26c0-9.926 8.074-18 18-18 9.925 0 18 8.074 18 18zm-8-36c0 5.514-4.484 10-10 10s-10-4.486-10-10 4.484-10 10-10c5.515 0 10 4.486 10 10zm27.14-35.026-67.778-24.295 13.496-37.654 67.778 24.295zm-103.14-86.974v-8c0-2.209 1.789-4 4-4s4 1.791 4 4v8c0 2.209-1.789 4-4 4s-4-1.792-4-4zm8 16v8c0 2.209-1.789 4-4 4s-4-1.791-4-4v-8c0-2.209 1.789-4 4-4 2.21 0 4 1.791 4 4zm-24-8c0-2.209 1.791-4 4-4h8c2.211 0 4 1.791 4 4s-1.789 4-4 4h-8c-2.209 0-4-1.792-4-4zm24 0c0-2.209 1.789-4 4-4h8c2.211 0 4 1.791 4 4s-1.789 4-4 4h-8c-2.211 0-4-1.792-4-4zm98 4c7.719 0 14-6.281 14-14s-6.281-14-14-14-14 6.281-14 14 6.281 14 14 14zm0-20c3.308 0 6 2.692 6 6s-2.692 6-6 6-6-2.692-6-6 2.691-6 6-6zm-209.948-5.609c0-2.362 1.914-4.276 4.276-4.276s4.276 1.915 4.276 4.276c0 2.362-1.914 4.277-4.276 4.277s-4.276-1.915-4.276-4.277zm164.202 56.204c.777-2.07 3.086-3.113 5.152-2.342l32 12c2.066.777 3.113 3.082 2.34 5.15-.602 1.605-2.129 2.598-3.746 2.598-.469 0-.942-.084-1.406-.256l-32-12c-2.067-.777-3.114-3.081-2.34-5.15zm-6.766 13.033c.773-2.072 3.078-3.109 5.152-2.342l32 12c2.066.777 3.113 3.082 2.34 5.15-.602 1.605-2.129 2.598-3.746 2.598-.469 0-.942-.084-1.406-.256l-32-12c-2.067-.776-3.114-3.081-2.34-5.15zm-103.477 1.998 2.52-5.488c.635-1.385.43-3.01-.529-4.192s-2.51-1.715-3.992-1.379l-5.89 1.338-4.442-4.094c-1.123-1.033-2.73-1.336-4.148-.791-1.422.547-2.408 1.854-2.547 3.369l-.547 6.016-5.266 2.961c-1.326.746-2.115 2.18-2.033 3.701.082 1.52 1.02 2.861 2.418 3.461l5.551 2.379 1.187 5.922c.299 1.494 1.42 2.688 2.891 3.08.342.09.688.135 1.031.135 1.137 0 2.238-.484 3.01-1.365l3.98-4.545 5.998.701c1.506.164 2.994-.522 3.822-1.799.828-1.278.858-2.914.078-4.223zm-7.967 2.319c-1.312-.14-2.605.348-3.474 1.338l-.026.029-.008-.037c-.258-1.291-1.137-2.373-2.346-2.89l-.035-.016.033-.02c1.146-.644 1.902-1.812 2.023-3.123l.002-.039.029.027c.969.893 2.311 1.254 3.598.959l.037-.008-.016.033c-.549 1.197-.474 2.588.199 3.719l.02.031z" fill="url(#SVGID_1_)"/></g></svg>